# xmcd
#
# Track frame offsets: 
#        150
#        27697
#        44525
#        58477
#        74032
#        79805
#        100160
#        111372
#        125347
#        131222
#        167692
#        172980
#        187180
#        199472
#        206647
#        230422
#        236960
#        241220
#        264690
#
# Disc length: 3584 seconds
#
# Revision: 3
# Processed by: cddbd v1.5.2PL0 Copyright (c) Steve Scherf et al.
# Submitted via: ExactAudioCopy v1.0b3
#
DISCID=320dfe13
DTITLE=Holland Boys Choir, Netherlands Bach Collegium,  PJ  Leusink - 
DTITLE=Bach Edition cd 052 - Cantatas  BWV 92, 54 en 44
DYEAR=2000
DGENRE=Cantaten
TTITLE0=Ich hab in Gottes Herz und Sinn  BWV 92 - I. Chor -  Ich hab i
TTITLE0=n Gottes Herz und Sinn
TTITLE1=Ich hab in Gottes Herz und Sinn  BWV 92 - II.  Rec and Choral - 
TTITLE1=Es kann mir fehlen immerzu
TTITLE2=Ich hab in Gottes Herz und Sinn  BWV 92 - III. Arie - Seht, se
TTITLE2=ht! Wie reißt, wie bricht
TTITLE3=Ich hab in Gottes Herz und Sinn  BWV 92 - IV. Choral - Zudem i
TTITLE3=st Weisheit und Verstand
TTITLE4=Ich hab in Gottes Herz und Sinn  BWV 92 - V. Rec - Wir wollen 
TTITLE4=nun nicht länger zagen
TTITLE5=Ich hab in Gottes Herz und Sinn  BWV 92 - VI. Arie - Das Braus
TTITLE5=en von den rauhen Winden
TTITLE6=Ich hab in Gottes Herz und Sinn  BWV 92 - VII. Choral , Re - E
TTITLE6=i nun, mein Gott
TTITLE7=Ich hab in Gottes Herz und Sinn  BWV 92 - VIII. Arie - Meinem 
TTITLE7=Hirten bleib ich treu
TTITLE8=Ich hab in Gottes Herz und Sinn  BWV 92 - IX. Choral , Soll ic
TTITLE8=h denn auch des Todes Weg
TTITLE9=Widerstrebe doch der Sünde  BWV 54 - I. Arie - Widerstrebe doc
TTITLE9=h der Sünde
TTITLE10=Widerstrebe doch der Sünde  BWV 54 - II. Recitativ - Die Art 
TTITLE10=verruchter Sünden
TTITLE11=Widerstrebe doch der Sünde  BWV 54 - III. Arie , Wer Sünde tu
TTITLE11=t, der ist vom Teufel
TTITLE12=Sie werden euch in den Bann tun  BWV 44 - I. Arie - Sie werde
TTITLE12=n euch in den Bann tun
TTITLE13=Sie werden euch in den Bann tun  BWV 44 - II. Chor - Es kömmt
TTITLE13=aber die Zeit
TTITLE14=Sie werden euch in den Bann tun  BWV 44 - III. Arie - Christe
TTITLE14=n müssen auf der Erden
TTITLE15=Sie werden euch in den Bann tun  BWV 44 - IV. Choral - Ach Go
TTITLE15=tt, wie manches Herzeleid
TTITLE16=Sie werden euch in den Bann tun  BWV 44 - V. Rec - Es sucht d
TTITLE16=er Antichrist
TTITLE17=Sie werden euch in den Bann tun  BWV 44 - VI. Arie - Es ist u
TTITLE17=nd bleibt der Christen Trost
TTITLE18=Sie werden euch in den Bann tun  BWV 44 - VII. Choral - So se
TTITLE18=i nun, Seele, deine
EXTD=
EXTT0=
EXTT1=
EXTT2=
EXTT3=
EXTT4=
EXTT5=
EXTT6=
EXTT7=
EXTT8=
EXTT9=
EXTT10=
EXTT11=
EXTT12=
EXTT13=
EXTT14=
EXTT15=
EXTT16=
EXTT17=
EXTT18=
PLAYORDER=
